<?xml version="1.0" standalone="no"?>
<!DOCTYPE svg PUBLIC "-//W3C//DTD SVG 20010904//EN"
 "http://www.w3.org/TR/2001/REC-SVG-20010904/DTD/svg10.dtd">
<svg version="1.0" xmlns="http://www.w3.org/2000/svg"
 width="16.000000pt" height="16.000000pt" viewBox="0 0 16.000000 16.000000"
 preserveAspectRatio="xMidYMid meet">
<metadata>
Created by potrace 1.11, written by Peter Selinger 2001-2013
</metadata>
<g transform="translate(0.000000,16.000000) scale(0.013913,-0.013913)"
fill="#000000" stroke="none">
<path d="M0 575 l0 -575 575 0 575 0 0 575 0 575 -575 0 -575 0 0 -575z m458
289 c97 -48 152 -149 152 -279 0 -137 -62 -245 -168 -292 -64 -28 -96 -29
-165 -3 -115 43 -186 175 -174 322 6 69 37 151 74 194 21 25 90 69 119 77 51
13 112 6 162 -19z m392 -38 c0 -52 -1 -55 -27 -58 l-28 -3 -3 -182 -2 -183 55
0 55 0 0 40 0 40 50 0 50 0 0 -100 0 -100 -190 0 -190 0 0 55 c0 52 1 55 25
55 l25 0 0 190 0 190 -25 0 c-24 0 -25 3 -25 55 l0 55 115 0 115 0 0 -54z
m150 -636 l0 -40 -450 0 -450 0 0 40 0 40 450 0 450 0 0 -40z"/>
<path d="M289 733 c-42 -36 -59 -79 -59 -150 1 -129 84 -211 173 -169 52 25
82 86 82 166 -1 146 -106 228 -196 153z"/>
</g>
</svg>
