<?xml version="1.0" standalone="no"?>
<!DOCTYPE svg PUBLIC "-//W3C//DTD SVG 20010904//EN"
  "http://www.w3.org/TR/2001/REC-SVG-20010904/DTD/svg10.dtd">
<svg version="1.0" xmlns="http://www.w3.org/2000/svg"
     width="16.000000pt" height="16.000000pt" viewBox="0 0 16.000000 16.000000"
     preserveAspectRatio="xMidYMid meet">
  <metadata>
    Created by potrace 1.11, written by Peter Selinger 2001-2013
  </metadata>
  <g transform="translate(0.000000,16.000000) scale(0.013913,-0.013913)"
     fill="#000000" stroke="none">
    <path d="M0 575 l0 -575 575 0 575 0 0 575 0 575 -575 0 -575 0 0 -575z m485
257 c86 -44 135 -122 135 -213 0 -72 -17 -122 -58 -169 -126 -148 -376 -102
-437 80 -44 133 25 273 155 315 59 19 154 13 205 -13z m375 -27 c0 -43 -1 -45
-30 -45 l-30 0 0 -150 0 -150 55 0 55 0 0 35 0 35 50 0 50 0 0 -80 0 -80 -190
0 -190 0 0 45 c0 41 2 45 25 45 l25 0 0 150 0 150 -25 0 c-23 0 -25 4 -25 45
l0 45 115 0 115 0 0 -45z m150 -510 l0 -35 -450 0 -450 0 0 35 0 35 450 0 450
0 0 -35z"/>
    <path d="M315 740 c-52 -25 -75 -65 -75 -127 0 -159 190 -204 245 -58 32 81
-8 174 -83 195 -47 13 -40 13 -87 -10z"/>
  </g>
</svg>
