<svg xmlns="http://www.w3.org/2000/svg"  width="100%" height="100%" viewBox="0 0 350 444" xml:space="preserve">
	<defs>
        <marker id="arrowHead" markerWidth="50" markerHeight="50" refX="0" refY="3" orient="auto" markerUnits="strokeWidth">
            <path d="M0,0 L0,6 L9,3 z" fill="#f00" />
        </marker>
    </defs>
	<rect x="0" y="0" width="310" height="444" style="fill:#cbccce;" />
	<rect x="15" y="15" width="277" height="53" style="fill:#ffffff;" />
	<text x="23" y="51" style="fill:#000000;font-size:45px;font-weight:bold;">OL</text>
	<line x1="23" y1="58" x2="284" y2="58" stroke="#000000" stroke-width="4" />

	<rect x="15" y="72" width="277" height="34" style="fill:#fabd9b;" />

	<rect x="15" y="110" width="91" height="120" style="fill:#ffffff;"/>
  	<rect x="108" y="110" width="91" height="120" style="fill:#ffffff;"/>
  	<rect x="201" y="110" width="91" height="120" style="fill:#ffffff;"/>

  	<rect x="15" y="231" width="91" height="120" style="fill:#ffffff;"/>
  	<rect x="108" y="231" width="91" height="120" style="fill:#ffffff;"/>
  	<rect x="201" y="231" width="91" height="120" style="fill:#ffffff;"/>

	<polygon points="15,352 292,352 292,417 270,410 250,417 230,405 187,419 167,410 157,417 137,410 87,421 50,412 15,419" style="fill:#ffffff;" />
	<path d="M 345 95 C310,97 310,85 270,85" stroke="#ed1c24" stroke-width="1" fill="none" marker-end="url(#arrowHead)"/>
	<line x1="107" y1="352" x2="107" y2="420" stroke="#cbccce" stroke-width="2" />
	<line x1="200" y1="352" x2="200" y2="420" stroke="#cbccce" stroke-width="2" />
</svg>
